<svg width="126" height="48" viewBox="0 0 126 48" fill="none" xmlns="http://www.w3.org/2000/svg">
<g clip-path="url(#clip0_31516_249067)">
<g clip-path="url(#clip1_31516_249067)">
<path d="M24.3324 48.0732C37.7713 48.0732 48.667 37.3126 48.667 24.0419C48.667 10.7649 37.7713 -4.19617e-05 24.3324 -4.19617e-05C10.8914 -4.19617e-05 0 10.7649 0 24.0419C0 37.3126 10.8914 48.0732 24.3324 48.0732Z" fill="#E20612"/>
<path d="M16.471 13.3024C11.8805 13.1264 10.638 19.5688 10.3547 20.6691C10.3396 20.7475 10.301 20.7751 10.301 20.7751C8.8846 20.5843 8.10127 20.2981 8.10127 20.2981L7.77936 21.199C8.73437 21.6463 10.1401 21.782 10.1401 21.782C9.86536 23.514 8.47684 26.7638 8.47684 26.7638C8.47684 26.7638 7.24498 26.3928 5.68692 26.3928C3.661 26.3928 2.9485 27.3341 2.89699 27.9298C2.76394 29.4731 4.74478 30.2087 6.11614 30.2087C8.79232 30.2087 10.1937 28.7777 10.1937 28.7777C10.1937 28.7777 17.6857 31.5866 25.5383 31.5866C35.8159 31.5866 44.4776 28.8837 44.4776 28.8837L44.2093 27.9298C44.2093 27.9298 37.932 30.09 25.9139 29.9437C17.6235 29.844 11.2668 27.4528 11.2668 27.4528C11.2668 27.4528 11.5071 27.0288 11.6423 26.7638C12.4729 25.0912 13.4665 21.729 13.4665 21.729C13.4665 21.729 19.1537 20.156 19.1537 15.6873C19.1537 14.2733 17.7866 13.3596 16.471 13.3024ZM16.6856 14.5743C17.5677 14.5743 17.8853 15.2633 17.8123 15.8993C17.3831 19.6324 13.6275 20.5101 13.6275 20.5101C13.6275 20.5101 14.5353 14.5743 16.6856 14.5743ZM25.8065 17.6482C24.8515 17.6482 24.197 18.0361 24.197 18.9201C24.197 19.8147 24.961 20.0331 25.8065 20.0331C26.6543 20.0331 27.4698 19.6727 27.4698 18.7611C27.4698 17.8475 26.4976 17.6482 25.8065 17.6482ZM38.5222 20.8811C35.7794 20.8811 34.2944 23.2172 34.23 24.5909C34.2171 24.8898 34.1763 24.9089 34.1763 24.9089C34.1119 24.981 33.1677 26.0748 31.9766 26.0748C31.0237 26.0748 30.8499 25.3074 30.8499 24.8029C30.8499 24.256 31.322 22.1 32.6204 22.1C33.3265 22.1 33.7471 22.683 33.7471 22.683L34.1227 21.464C34.1227 21.464 33.5303 20.9913 32.2985 20.9871C29.6459 20.9849 27.8561 22.9247 27.7917 24.6969C27.7788 24.9619 27.7337 25.0509 27.738 25.0679C27.65 25.1739 27.0298 25.9159 26.1821 25.9159C25.6027 25.9159 25.5919 25.477 25.5919 25.2799C25.5919 25.0106 26.7186 21.146 26.7186 21.146L23.7141 21.199L22.6947 24.9619C22.6947 24.9619 21.0208 26.1257 18.7244 26.2868C17.5398 26.3674 17.1149 25.6445 17.1149 25.2269C17.1149 25.053 17.1149 25.0679 17.1149 25.0679C17.117 25.0679 17.6128 25.1209 17.9733 25.1209C18.2566 25.1209 21.7826 24.8517 21.7826 22.736C21.7826 21.5255 20.54 21.093 18.9927 21.093C16.132 21.093 14.1103 22.8293 14.1103 24.9089C14.1103 26.8062 15.75 27.6118 17.866 27.6118C20.2675 27.6118 22.6411 26.1808 22.6411 26.1808C22.6411 26.1808 22.7848 27.6118 24.6798 27.6118C26.6349 27.6118 28.1673 26.1808 28.1673 26.1808C28.1673 26.1808 29.0128 27.5588 30.9572 27.5588C32.9445 27.5588 34.4446 25.9688 34.4446 25.9688C34.4446 25.9688 34.9983 27.4528 36.9662 27.4528C38.505 27.4528 39.3269 26.4988 39.3269 26.4988C39.3269 26.4988 39.7562 27.4528 41.0975 27.4528C42.7349 27.4528 43.941 26.3398 43.941 26.3398L43.6728 25.3859C43.6728 25.3859 43.0504 25.8629 42.5997 25.8629C42.2585 25.8629 42.0632 25.5894 42.0632 25.2799C42.0632 24.5845 43.1899 21.146 43.1899 21.146L40.4536 21.199L40.3463 21.623C40.3463 21.623 39.9386 20.8811 38.5222 20.8811ZM19.1 21.941C19.5035 21.9643 19.8104 22.2336 19.7975 22.524C19.731 24.4065 17.3831 24.1139 17.3831 24.1139C17.3831 24.1139 17.7287 21.8583 19.1 21.941ZM39.0587 21.994C39.6231 21.994 39.9171 22.4371 39.9171 22.789C39.9171 22.8611 39.5974 26.0748 37.9856 26.0748C37.2474 26.0748 37.2345 25.246 37.2345 25.0149C37.2345 24.4022 37.7217 21.994 39.0587 21.994ZM5.15039 27.5588C5.29053 27.5448 5.40417 27.5503 5.52596 27.5588C6.69987 27.6224 7.72571 28.0358 7.72571 28.0358C7.72571 28.0358 6.51745 28.96 5.52596 28.9897C4.76839 29.013 4.29196 28.5255 4.29196 28.2478C4.29196 27.7867 4.72999 27.6007 5.15039 27.5588Z" fill="white"/>
</g>
<path d="M125.926 22.5563C125.882 22.0433 125.807 21.5304 125.703 21.0174C125.6 20.4897 125.466 19.9768 125.318 19.4638C125.154 18.9362 124.976 18.4232 124.769 17.9249C124.576 17.4559 124.353 16.9868 124.101 16.5325C123.849 16.0781 123.582 15.6238 123.285 15.1841C122.691 14.3047 122.009 13.4839 121.252 12.7365C120.495 11.989 119.665 11.3148 118.774 10.7285C118.329 10.4354 117.884 10.1716 117.409 9.92242C116.949 9.67326 116.475 9.46807 116 9.26288C115.495 9.05768 114.961 8.86715 114.442 8.72058C113.922 8.57402 113.403 8.44211 112.869 8.33952C112.35 8.23692 111.83 8.16364 111.311 8.11967C110.807 8.0757 110.302 8.04639 109.798 8.04639C109.293 8.04639 108.789 8.0757 108.284 8.11967C107.765 8.16364 107.246 8.23692 106.726 8.33952C106.192 8.44211 105.673 8.57402 105.154 8.72058C104.619 8.88181 104.1 9.05768 103.596 9.26288C103.121 9.45341 102.646 9.67326 102.186 9.92242C101.726 10.1716 101.266 10.4354 100.821 10.7285C99.9307 11.3148 99.0998 11.989 98.3431 12.7365C97.5864 13.4839 96.9039 14.3047 96.3104 15.1841C96.0136 15.6238 95.7465 16.0635 95.4943 16.5325C95.4498 16.6058 95.4201 16.6937 95.3756 16.767C95.3311 16.6937 95.3014 16.6058 95.2569 16.5325C95.0047 16.0781 94.7376 15.6238 94.4408 15.1841C93.8473 14.3047 93.1648 13.4839 92.4081 12.7365C91.6514 11.989 90.8205 11.3148 89.9302 10.7285C89.4851 10.4354 89.04 10.1716 88.5652 9.92242C88.1052 9.67326 87.6304 9.46807 87.1556 9.26288C86.6512 9.05768 86.117 8.86715 85.5977 8.72058C85.0784 8.57402 84.5591 8.44211 84.0249 8.33952C83.5056 8.23692 82.9863 8.16364 82.467 8.11967C81.9625 8.0757 81.458 8.04639 80.9536 8.04639C80.4491 8.04639 79.9446 8.0757 79.4401 8.11967C78.9208 8.16364 78.4015 8.23692 77.8822 8.33952C77.3481 8.44211 76.8287 8.57402 76.3094 8.72058C75.7753 8.88181 75.256 9.05768 74.7515 9.26288C74.2767 9.45341 73.8019 9.67326 73.3419 9.92242C72.882 10.1716 72.422 10.4354 71.9769 10.7285C71.0866 11.3148 70.2557 11.989 69.499 12.7365C69.0836 13.1468 68.683 13.5865 68.3269 14.0409V8.06104H61.2345L59.3057 11.3734H64.7659V40.0562H68.3269V34.0617C68.6978 34.516 69.0836 34.9557 69.499 35.3661C70.2557 36.1136 71.0866 36.7878 71.9769 37.374C72.422 37.6672 72.8671 37.931 73.3419 38.1801C73.8019 38.4293 74.2767 38.6345 74.7515 38.8397C75.256 39.0449 75.7901 39.2354 76.3094 39.382C76.8287 39.5285 77.3481 39.6604 77.8822 39.763C78.4015 39.8656 78.9208 39.9389 79.4401 39.9829C79.9446 40.0268 80.4491 40.0562 80.9536 40.0562C81.458 40.0562 81.9625 40.0268 82.467 39.9829C82.9863 39.9389 83.5056 39.8656 84.0249 39.763C84.5591 39.6604 85.0784 39.5285 85.5977 39.382C86.1319 39.2207 86.6512 39.0449 87.1556 38.8397C87.6304 38.6491 88.1052 38.4293 88.5652 38.1801C89.0252 37.931 89.4851 37.6672 89.9302 37.374C90.8205 36.7878 91.6514 36.1136 92.4081 35.3661C93.1648 34.6186 93.8473 33.7978 94.4408 32.9184C94.7376 32.4788 95.0047 32.0391 95.2569 31.57C95.3014 31.4968 95.3311 31.4088 95.3756 31.3355C95.4201 31.4088 95.4498 31.4968 95.4943 31.57C95.7465 32.0244 96.0136 32.4788 96.3104 32.9184C96.9039 33.7978 97.5864 34.6186 98.3431 35.3661C99.0998 36.1136 99.9307 36.7878 100.821 37.374C101.266 37.6672 101.711 37.931 102.186 38.1801C102.646 38.4293 103.121 38.6345 103.596 38.8397C104.1 39.0449 104.634 39.2354 105.154 39.382C105.673 39.5285 106.192 39.6604 106.726 39.763C107.246 39.8656 107.765 39.9389 108.284 39.9829C108.789 40.0268 109.293 40.0562 109.798 40.0562C110.302 40.0562 110.807 40.0268 111.311 39.9829C111.83 39.9389 112.35 39.8656 112.869 39.763C113.403 39.6604 113.922 39.5285 114.442 39.382C114.976 39.2207 115.495 39.0449 116 38.8397C116.475 38.6491 116.949 38.4293 117.409 38.1801C117.869 37.931 118.329 37.6672 118.774 37.374C119.665 36.7878 120.495 36.1136 121.252 35.3661C122.009 34.6186 122.691 33.7978 123.285 32.9184C123.582 32.4788 123.849 32.0391 124.101 31.57C124.353 31.1157 124.561 30.6467 124.769 30.1777C124.976 29.6794 125.169 29.1517 125.318 28.6388C125.466 28.1258 125.6 27.6128 125.703 27.0852C125.807 26.5722 125.882 26.0592 125.926 25.5462C125.971 25.0479 126 24.5496 126 24.0513C126 23.553 125.971 23.0546 125.926 22.5563ZM93.5654 25.2091C93.5209 25.6049 93.4764 26.0152 93.3874 26.411C93.3132 26.8213 93.2093 27.2171 93.0906 27.6275C92.9719 28.0378 92.8236 28.4336 92.6603 28.8293C92.512 29.1957 92.3339 29.5621 92.141 29.9139C91.9481 30.2656 91.7404 30.6174 91.503 30.9691C91.0431 31.658 90.5089 32.3029 89.9154 32.8745C89.3219 33.4607 88.6691 33.9884 87.9865 34.4427C87.6453 34.6626 87.2892 34.8824 86.9182 35.073C86.5621 35.2635 86.1912 35.4394 85.8203 35.5859C85.4197 35.7471 85.019 35.8937 84.6036 36.011C84.203 36.1282 83.7875 36.2308 83.3869 36.3041C82.9863 36.3774 82.5857 36.436 82.1702 36.48C81.7845 36.5093 81.3839 36.5386 80.9832 36.5386C80.5826 36.5386 80.1968 36.5239 79.7962 36.48C79.3956 36.436 78.9802 36.392 78.5796 36.3041C78.1641 36.2308 77.7635 36.1282 77.3481 36.011C76.9326 35.8937 76.532 35.7471 76.1314 35.5859C75.7604 35.4394 75.3895 35.2635 75.0334 35.073C74.6773 34.8824 74.3064 34.6772 73.9651 34.4427C73.2677 33.9884 72.6149 33.4607 72.0362 32.8745C71.4427 32.2882 70.9086 31.6433 70.4486 30.9691C70.2261 30.632 70.0035 30.2803 69.8106 29.9139C69.6177 29.5621 69.4397 29.1957 69.2913 28.8293C69.1281 28.4336 68.9797 28.0378 68.861 27.6275C68.7423 27.2317 68.6384 26.8213 68.5643 26.411C68.4901 26.0152 68.4307 25.6195 68.3862 25.2091C68.3565 24.8574 68.3417 24.5056 68.3269 24.1539V23.934C68.3269 23.5823 68.3417 23.2305 68.3862 22.8788C68.4307 22.483 68.4752 22.0726 68.5643 21.6769C68.6384 21.2665 68.7423 20.8708 68.861 20.4751C68.9797 20.0647 69.1281 19.669 69.2913 19.2733C69.4397 18.9068 69.6177 18.5404 69.8106 18.1887C70.0035 17.8369 70.2112 17.4705 70.4486 17.1334C70.9086 16.4446 71.4427 15.7997 72.0362 15.2281C72.6297 14.6418 73.2826 14.1142 73.9651 13.6598C74.3064 13.44 74.6625 13.2201 75.0334 13.0296C75.3895 12.8391 75.7604 12.6632 76.1314 12.5166C76.532 12.3554 76.9326 12.2088 77.3481 12.0916C77.7487 11.9743 78.1641 11.8717 78.5796 11.7984C78.9802 11.7252 79.3808 11.6665 79.7962 11.6226C80.182 11.5933 80.5826 11.5639 80.9832 11.5639C81.3839 11.5639 81.7696 11.5786 82.1702 11.6226C82.5709 11.6665 82.9863 11.7105 83.3869 11.7984C83.8024 11.8717 84.203 11.9743 84.6036 12.0916C85.019 12.2088 85.4197 12.3554 85.8203 12.5166C86.1912 12.6632 86.5621 12.8391 86.9182 13.0296C87.2743 13.2201 87.6453 13.4253 87.9865 13.6598C88.6839 14.1142 89.3367 14.6418 89.9154 15.2281C90.5089 15.8143 91.0431 16.4592 91.503 17.1334C91.7256 17.4705 91.9481 17.8223 92.141 18.1887C92.3339 18.5404 92.512 18.9068 92.6603 19.2733C92.8236 19.669 92.9719 20.0647 93.0906 20.4751C93.2093 20.8708 93.3132 21.2812 93.3874 21.6769C93.4616 22.0726 93.5209 22.4684 93.5654 22.8788C93.5951 23.2598 93.6248 23.6555 93.6248 24.0513C93.6248 24.447 93.6099 24.8281 93.5654 25.2238V25.2091ZM122.38 25.2091C122.335 25.6049 122.291 26.0152 122.202 26.411C122.128 26.8213 122.024 27.2171 121.905 27.6275C121.786 28.0378 121.638 28.4336 121.475 28.8293C121.326 29.1957 121.148 29.5621 120.955 29.9139C120.763 30.2656 120.555 30.6174 120.317 30.9691C119.857 31.658 119.323 32.3029 118.73 32.8745C118.136 33.4607 117.483 33.9884 116.801 34.4427C116.46 34.6626 116.104 34.8824 115.733 35.073C115.377 35.2635 115.006 35.4394 114.635 35.5859C114.234 35.7471 113.833 35.8937 113.418 36.011C113.017 36.1282 112.602 36.2308 112.201 36.3041C111.801 36.3774 111.4 36.436 110.985 36.48C110.599 36.5093 110.198 36.5386 109.798 36.5386C109.397 36.5386 109.011 36.5239 108.611 36.48C108.21 36.436 107.795 36.392 107.394 36.3041C106.979 36.2308 106.578 36.1282 106.162 36.011C105.747 35.8937 105.346 35.7471 104.946 35.5859C104.575 35.4394 104.204 35.2635 103.848 35.073C103.492 34.8824 103.121 34.6772 102.78 34.4427C102.082 33.9884 101.429 33.4607 100.851 32.8745C100.257 32.2882 99.723 31.6433 99.263 30.9691C99.0405 30.632 98.8179 30.2803 98.625 29.9139C98.4321 29.5621 98.2541 29.1957 98.1057 28.8293C97.9425 28.4336 97.7941 28.0378 97.6754 27.6275C97.5567 27.2317 97.4529 26.8213 97.3787 26.411C97.3045 26.0152 97.2451 25.6195 97.2006 25.2091C97.1709 24.8281 97.1413 24.4323 97.1413 24.0366C97.1413 23.6409 97.1561 23.2598 97.2006 22.8641C97.2451 22.4684 97.2896 22.058 97.3787 21.6623C97.4529 21.2519 97.5567 20.8562 97.6754 20.4604C97.7941 20.0501 97.9425 19.6543 98.1057 19.2586C98.2541 18.8922 98.4321 18.5258 98.625 18.174C98.8179 17.8223 99.0256 17.4559 99.263 17.1188C99.723 16.4299 100.257 15.785 100.851 15.2134C101.444 14.6272 102.097 14.0995 102.78 13.6452C103.121 13.4253 103.477 13.2055 103.848 13.0149C104.204 12.8244 104.575 12.6485 104.946 12.502C105.346 12.3407 105.747 12.1942 106.162 12.0769C106.563 11.9597 106.979 11.8571 107.394 11.7838C107.795 11.7105 108.195 11.6519 108.611 11.6079C108.996 11.5786 109.397 11.5493 109.798 11.5493C110.198 11.5493 110.584 11.5639 110.985 11.6079C111.385 11.6519 111.801 11.6959 112.201 11.7838C112.617 11.8571 113.017 11.9597 113.418 12.0769C113.833 12.1942 114.234 12.3407 114.635 12.502C115.006 12.6485 115.377 12.8244 115.733 13.0149C116.089 13.2055 116.46 13.4107 116.801 13.6452C117.498 14.0995 118.151 14.6272 118.73 15.2134C119.323 15.7997 119.857 16.4446 120.317 17.1188C120.54 17.4559 120.763 17.8076 120.955 18.174C121.148 18.5258 121.326 18.8922 121.475 19.2586C121.638 19.6543 121.786 20.0501 121.905 20.4604C122.024 20.8562 122.128 21.2665 122.202 21.6623C122.276 22.058 122.335 22.4537 122.38 22.8641C122.41 23.2452 122.439 23.6409 122.439 24.0366C122.439 24.4323 122.424 24.8134 122.38 25.2091Z" fill="white"/>
</g>
<defs>
<clipPath id="clip0_31516_249067">
<rect width="126" height="48" fill="white"/>
</clipPath>
<clipPath id="clip1_31516_249067">
<rect width="48.667" height="48.0733" fill="white"/>
</clipPath>
</defs>
</svg>
